<svg xmlns="http://www.w3.org/2000/svg" viewBox="0 0 115.01 115"><defs><style>.cls-1{fill:#fff;}</style></defs><g id="Camada_2" data-name="Camada 2"><g id="Camada_1-2" data-name="Camada 1"><path class="cls-1" d="M4.38,35.5A57.5,57.5,0,1,0,25.56,9.69,57.41,57.41,0,0,0,4.38,35.5ZM109.65,62.8A52.07,52.07,0,0,1,98.1,90.61l-1.75,2.14L63.65,60h46.28ZM98.1,24.39A52.07,52.07,0,0,1,109.65,52.2l.28,2.76H63.65l32.7-32.71Zm-38-19.32,2.75.28A52.08,52.08,0,0,1,90.62,16.91l2.14,1.74L60.05,51.36Zm0,58.57L92.76,96.35l-2.14,1.74A52.08,52.08,0,0,1,62.8,109.65l-2.75.27Zm-43.14,27A52.15,52.15,0,0,1,5.36,62.8L5.08,60H51.37L18.66,92.75ZM55,109.92l-2.75-.27A52.12,52.12,0,0,1,24.39,98.09l-2.13-1.74L55,63.64Zm-30.57-93A52.08,52.08,0,0,1,52.21,5.35L55,5.07V51.36L22.26,18.65ZM51.37,55H5.08l.28-2.76A52.15,52.15,0,0,1,16.91,24.39l1.75-2.14Z"/></g></g></svg>