<svg width="187" height="156" viewBox="0 0 187 156" fill="none" xmlns="http://www.w3.org/2000/svg">
<path d="M134.858 0.34082H59.8536V56.4614H134.858V0.34082Z" fill="#FF6720"/>
<path d="M146.574 56.6886H48.1605V0.113586H146.574V56.6886ZM48.5927 56.2342H146.142V0.568004H48.5927V56.2342Z" fill="#0F2821"/>
<path d="M97.3674 14.5641C93.2952 10.3153 86.7207 10.3153 82.6485 14.5641C78.5764 18.8129 78.5764 25.7201 82.6485 29.9916L97.3674 45.4191L112.086 29.9916C116.158 25.7428 116.158 18.8356 112.086 14.5641C108.014 10.3153 101.44 10.3153 97.3674 14.5641Z" fill="white"/>
<path d="M0 90.202C0 90.202 1.95645 72.9113 10.6467 61.1192C26.503 39.3071 48.0467 20.5851 104.624 55.8934C140.455 78.2735 167.345 88.7705 187 93.3602L0 90.202Z" fill="#ADCAB8"/>
<path d="M168.505 137.916H103.601C103.601 137.916 102.281 117.695 110.062 117.467C117.842 117.24 116.977 126.419 126.714 113.787C136.451 101.154 148.303 101.835 149.85 109.311C151.374 116.786 146.893 122.761 155.105 120.921C163.363 119.081 175.193 123.897 168.505 137.916Z" fill="#FF6720"/>
<path d="M134.972 137.916H134.745C135.245 124.601 137.907 116.058 140.068 111.219C142.388 105.97 144.641 103.857 144.663 103.834L144.8 104.016C144.777 104.039 142.57 106.129 140.25 111.355C138.112 116.149 135.473 124.647 134.972 137.916Z" fill="#F2F2F2"/>
<path d="M158.45 137.939L158.245 137.87C160.77 128.759 166.753 122.988 166.799 122.943L166.935 123.102C166.89 123.17 160.975 128.896 158.45 137.939Z" fill="#F2F2F2"/>
<path d="M113.838 137.939L113.611 137.916C114.475 131.418 112.928 126.374 111.472 123.284C109.902 119.944 108.105 118.126 108.082 118.103L108.242 117.944C108.264 117.967 110.084 119.807 111.677 123.193C113.133 126.283 114.702 131.372 113.838 137.939Z" fill="#F2F2F2"/>
<path d="M65.0632 148.14H0.159226C0.159226 148.14 -1.16024 127.919 6.62005 127.691C14.4003 127.464 13.5359 136.643 23.2726 124.011C33.0093 111.378 44.8618 112.059 46.4087 119.535C47.933 127.01 43.4513 132.985 51.6639 131.145C59.8764 129.305 71.7516 134.121 65.0632 148.14Z" fill="#FF6720"/>
<path d="M31.5307 148.14H31.3032C31.8036 134.826 34.4653 126.283 36.6265 121.443C38.947 116.195 41.1991 114.082 41.2219 114.059L41.3584 114.241C41.3356 114.263 39.129 116.354 36.8085 121.58C34.6701 126.374 32.0311 134.871 31.5307 148.14Z" fill="#F2F2F2"/>
<path d="M55.008 148.163L54.8033 148.095C57.3285 138.984 63.3116 133.213 63.3571 133.167L63.4936 133.326C63.4481 133.394 57.5332 139.12 55.008 148.163Z" fill="#F2F2F2"/>
<path d="M30.7117 115.99L33.0776 140.983L37.1952 140.302L38.9469 116.445L30.7117 115.99Z" fill="#FFB8B8"/>
<path d="M37.855 137.802L32.2131 138.711L32.8729 145.982C32.8729 145.982 30.9164 147.118 32.2131 150.753C33.5099 154.389 33.5099 155.297 33.5099 155.297L37.9687 154.843C39.6977 154.661 43.8608 153.025 44.4523 151.321C44.7026 150.617 42.0636 150.458 41.5176 150.299C40.0162 149.844 37.855 137.802 37.855 137.802Z" fill="#0F2821"/>
<path d="M51.9369 115.081L54.3256 140.074L58.4432 139.393L60.1949 115.536L51.9369 115.081Z" fill="#FFB8B8"/>
<path d="M48.1605 34.5358C51.8669 34.5358 54.8715 31.3823 54.8715 27.4923C54.8715 23.6023 51.8669 20.4488 48.1605 20.4488C44.4541 20.4488 41.4494 23.6023 41.4494 27.4923C41.4494 31.3823 44.4541 34.5358 48.1605 34.5358Z" fill="#FFB8B8"/>
<path d="M50.0032 32.3773C50.0032 32.3773 48.2742 37.1486 50.0032 38.7391C51.7321 40.3296 38.5147 40.3296 38.5147 40.3296L43.9291 30.1052L50.0032 32.3773Z" fill="#FFB8B8"/>
<path d="M62.7883 116.672C59.9674 121.898 32.4406 118.262 32.4406 118.262L27.6632 115.081L25.7068 113.945C25.7068 113.945 27.0035 92.1332 29.3922 78.7279C31.7809 65.3226 37.855 64.4137 37.855 64.4137L37.8777 64.1411L38.0825 61.6872C38.0825 61.6872 37.9005 61.4827 37.582 61.1192C35.6483 58.8244 28.7097 50.1677 29.8244 44.8737C31.1211 38.7391 40.8806 35.7854 46.7272 35.5582C52.5738 35.331 57.5559 40.784 57.5559 40.784L56.7142 44.5102L53.0061 60.7784L52.9606 61.1192L52.3691 64.6409C53.461 64.7091 54.1663 64.959 54.6213 65.2771C55.6222 65.9587 55.4175 66.913 55.4175 66.913L58.7389 89.3158L62.7883 116.672Z" fill="#173F35"/>
<path d="M25.7068 86.6802C25.7068 86.6802 24.7514 96.5865 27.0718 96.8592C29.3922 97.1318 28.7325 86.6802 28.7325 86.6802H25.7068Z" fill="#FFB8B8"/>
<path d="M32.8728 42.1473C32.8728 42.1473 29.1874 41.9201 28.5277 46.237C27.868 50.554 27.231 67.1402 27.231 67.1402L23.5456 87.8163L31.1439 88.7251L36.126 57.3703L32.8728 42.1473Z" fill="#173F35"/>
<path d="M64.3125 87.1346C64.3125 87.1346 65.8367 96.223 63.448 96.4502C61.0594 96.6774 60.1949 87.5891 60.1949 87.5891L64.3125 87.1346Z" fill="#FFB8B8"/>
<path d="M46.3633 16.9498C45.7718 16.9271 45.1803 16.9498 44.5888 17.0861C43.9518 17.2679 43.3376 17.5406 42.7461 17.8814C40.0617 19.381 37.4 21.3122 36.1488 24.2205C35.1251 26.6062 35.1478 29.3327 35.4891 31.9229C35.6028 32.7636 35.7393 33.6042 35.5573 34.4222C35.2161 36.1263 33.6919 37.2623 32.9866 38.83C32.2814 40.4432 32.5316 42.3745 33.2369 43.9877C33.4416 44.4421 33.6919 44.942 33.5781 45.4418C33.5099 45.6918 33.3734 45.919 33.2141 46.1235C32.6454 46.896 32.0084 47.5776 31.5307 48.3955C31.0529 49.2135 30.7344 50.1905 30.9392 51.1448C31.1439 52.1218 31.8492 52.8716 32.5316 53.5532C33.1686 54.2121 33.9193 54.9164 34.8066 54.8483C35.3298 54.8256 35.8303 54.5075 36.2853 54.2121C37.6502 53.326 39.1517 52.2354 39.3564 50.5768C39.7659 52.0763 41.4494 52.7125 42.9281 52.8261C44.1793 52.917 45.4988 52.758 46.568 52.0763C47.6372 51.3947 48.4335 50.0996 48.297 48.7818C48.1832 47.7594 47.569 46.6915 48.0012 45.7826C48.3425 45.0783 49.1387 44.8284 49.7529 44.3967C51.0269 43.5105 51.6411 41.8746 51.2999 40.3069C50.9131 38.7164 49.5254 37.3305 49.8212 35.7173C49.9804 34.763 50.7084 34.0132 51.0269 33.1044C51.3909 32.0138 51.1179 30.7868 50.6629 29.7417C50.2079 28.6965 49.5937 27.7195 49.2069 26.6289C49.0249 26.1972 48.9567 25.7201 49.0249 25.2657C49.2297 24.2887 50.2762 23.7661 51.2089 23.6525C52.1644 23.5389 53.1426 23.6752 54.0298 23.3117C54.8488 22.9709 55.8725 21.903 55.7133 20.8805C55.5768 19.9263 54.2801 19.1992 53.5748 18.7448C51.4364 17.3815 48.8429 16.9953 46.3633 16.9498Z" fill="#FF6720"/>
<path d="M37.8777 64.1411L38.0825 61.6872C38.0825 61.6872 37.9005 61.4827 37.582 61.1192H52.9833L52.3918 64.6409C53.4838 64.7091 52.0506 64.2092 52.5056 64.5273C48.6837 64.1865 41.8134 64.1638 37.8777 64.1411Z" fill="#0F2821"/>
<path opacity="0.1" d="M58.7389 89.3158L55.645 89.6339L52.3918 64.6409C53.4838 64.7091 54.189 64.959 54.644 65.2771C55.645 65.9587 55.4403 66.913 55.4403 66.913L58.7389 89.3158Z" fill="black"/>
<path d="M52.3918 40.3296L57.5787 40.784L66.2462 88.7251L57.1465 89.6339L50.6401 52.3717L52.3918 40.3296Z" fill="#173F35"/>
<path opacity="0.1" d="M35.1478 66.5722L30.7117 88.7251L34.4881 66.5722H35.1478Z" fill="black"/>
<path d="M58.8754 137.802L53.2336 138.711L53.8933 145.982C53.8933 145.982 51.9369 147.118 53.2336 150.753C54.5303 154.389 54.5303 155.297 54.5303 155.297L58.9892 154.843C60.7181 154.661 64.8813 153.025 65.4727 151.321C65.723 150.617 63.0841 150.458 62.5381 150.299C61.0594 149.844 58.8754 137.802 58.8754 137.802Z" fill="#0F2821"/>
<path d="M50.6109 29.394C50.9338 29.2256 50.9646 28.6472 50.6797 28.1022C50.3947 27.5572 49.9018 27.2519 49.5789 27.4203C49.2559 27.5888 49.2251 28.1672 49.5101 28.7122C49.7951 29.2572 50.2879 29.5625 50.6109 29.394Z" fill="#FFB8B8"/>
</svg>
