<svg xmlns="http://www.w3.org/2000/svg" viewBox="0 0 126.1 110.6"><defs><style>.cls-1{fill:#fff;}</style></defs><g id="Camada_2" data-name="Camada 2"><g id="Camada_1-2" data-name="Camada 1"><path class="cls-1" d="M0,108v2.65H97.38V108A48.09,48.09,0,0,0,95.2,93.64l-.81-2.59H126.1l0-2.66a48.55,48.55,0,0,0-20.7-39.83l-1.46-1,.85-1.57A31.09,31.09,0,0,0,78.86,0,31.09,31.09,0,0,0,48.84,19l-.49,1.16-1.26.06A31.07,31.07,0,0,0,21,65.78l.82,1.55-1.43,1A48.61,48.61,0,0,0,0,108ZM114.74,66.26a43.34,43.34,0,0,1,5.84,17.31l.25,2.23-28.78,0-.56-1A48.55,48.55,0,0,0,76.9,68.23l-1.68-1.17.85-1.57.39-.77.91-2h1.55l1.7-.14,2.12-.27a30.56,30.56,0,0,0,11.1-4.37l2.09-1.45,1.13-.88a28.68,28.68,0,0,0,2.68-2.51l1.19-1.25,1.41,1A43.33,43.33,0,0,1,114.74,66.26ZM55.2,18.21a25.95,25.95,0,0,1,22-12.36h0A25.82,25.82,0,0,1,94.33,51L92,52.84a26.08,26.08,0,0,1-10.31,4.31l-2.36.42V55.18a3.87,3.87,0,0,1,.09-.93l0-1.31V49.12a3.71,3.71,0,0,0,0-.63l0-.21-.08-.84a2.11,2.11,0,0,0,0-.35l-.06-.37-.24-1.46c0-.25-.07-.32-.1-.47s-.09-.36-.14-.61l-.23-1c-.08-.3-.17-.6-.25-.88l-.13-.53c-.12-.37-.25-.74-.39-1.17l0-.1a32,32,0,0,0-1.78-4l-.3-.51v-.1c-.15-.27-.32-.55-.49-.84s-.51-.81-.78-1.21A31.33,31.33,0,0,0,58.06,21.64H58l-4.15-1.18Zm-31,24.27A25.82,25.82,0,0,1,48.45,25.41h1.39a17.12,17.12,0,0,1,2.43.23l1.38.25a25.88,25.88,0,0,1,15.47,9.82l.12.15.64.91.62,1,.1.17c.16.28.34.58.54.94l.07.14c.13.23.25.47.37.72l.24.48c.12.27.24.53.35.79l.15.32c.12.29.22.55.31.81l.12.3.28.84.13.39c.08.27.16.54.22.79l.11.42a3.17,3.17,0,0,1,.12.49l.21,1c0,.15.06.26.08.36l.27,2.09a2.24,2.24,0,0,0,0,.4l0,.38v3.21l0,1a4.75,4.75,0,0,1-.1.94l0,.47c0,.33-.11.66-.18,1l0,.32c-.07.31-.14.64-.22.95l-.09.34c-.07.29-.15.57-.26.92l-.08.26c-.1.32-.21.66-.37,1.07s-.29.76-.46,1.17c-.09.22-.18.41-.26.59l-.3.66-.25.5h0l-.24.53a25.91,25.91,0,0,1-4.45,6c-.5.5-1.07,1-1.68,1.52l-1.73,1.33a25.92,25.92,0,0,1-10.16,4.31l-2,.25h-.42l-.3,0L50,77h-.24c-.4,0-.79,0-1.19,0s-.78,0-1.17,0h-.1a6.52,6.52,0,0,1-1.11-.07l-.53,0-1.56-.23A26,26,0,0,1,33.94,72.5l-.55-.3L32,71.09a25.81,25.81,0,0,1-7.77-28.61ZM11.28,85.94A43.46,43.46,0,0,1,23.46,72.58l1.41-1,1.2,1.24a28.62,28.62,0,0,0,2.56,2.36l.15.13c.25.2.47.38.7.55l1.19.87A31.33,31.33,0,0,0,44.13,82l1.38.11,1.47.1a29.62,29.62,0,0,0,3,0h.24a4.32,4.32,0,0,0,.87,0l.22,0h.59l.94-.12a30.53,30.53,0,0,0,12.27-4.55l.18-.11,1-.65.58-.42a2.26,2.26,0,0,0,.28-.2l1.28-1a10.17,10.17,0,0,0,.89-.82l.09-.09c.6-.53,1.15-1.08,1.66-1.61l1.19-1.25,1.41,1a43.77,43.77,0,0,1,18.24,30.72l.25,2.23-86.84,0,.26-2.23A43.6,43.6,0,0,1,11.28,85.94Z"/></g></g></svg>