<svg xmlns="http://www.w3.org/2000/svg" viewBox="0 0 147.62 107.61"><defs><style>.cls-1{fill:#fff;}</style></defs><g id="Camada_2" data-name="Camada 2"><g id="Camada_1-2" data-name="Camada 1"><path class="cls-1" d="M127,80.93l20.59-66.18H35.28L30.69,0h-26V0L4.46,0A4.47,4.47,0,1,0,8.87,5H27l3,9.75h0L45.81,65.43A22.07,22.07,0,1,0,76.81,88h23.54A15.77,15.77,0,1,0,127,80.93ZM54.89,102.61A17.07,17.07,0,1,1,72,85.54,17.09,17.09,0,0,1,54.89,102.61ZM102.55,83H76.81A22,22,0,0,0,50.57,63.9L36.84,19.75h104l-18.09,58A15.73,15.73,0,0,0,102.55,83Zm13.1,19.57a10.78,10.78,0,1,1,10.78-10.78A10.79,10.79,0,0,1,115.65,102.61Z"/></g></g></svg>