<svg width="200" height="163" viewBox="0 0 200 163" fill="none" xmlns="http://www.w3.org/2000/svg">
<path d="M166.887 139.956H49.2352V22.1926H166.928V139.956H166.887Z" fill="white"/>
<path d="M166.887 139.956H49.2352V22.1926H166.928V139.956H166.887ZM50.9715 138.219H165.151V23.9299H50.9715V138.219Z" fill="#ADCAB8"/>
<path d="M148.987 72.8223H73.5014V75.4696H148.987V72.8223Z" fill="#FF6720"/>
<path d="M148.987 79.7302H73.5014V82.3775H148.987V79.7302Z" fill="#FF6720"/>
<path d="M148.987 86.6793H73.5014V89.3266H148.987V86.6793Z" fill="#FF6720"/>
<path d="M68.9128 76.2969C69.8717 76.2969 70.649 75.5191 70.649 74.5596C70.649 73.6001 69.8717 72.8223 68.9128 72.8223C67.9539 72.8223 67.1765 73.6001 67.1765 74.5596C67.1765 75.5191 67.9539 76.2969 68.9128 76.2969Z" fill="#FF6720"/>
<path d="M148.987 42.9574H73.5014V45.6047H148.987V42.9574Z" fill="#ADCAB8"/>
<path d="M148.987 49.8652H73.5014V52.5125H148.987V49.8652Z" fill="#ADCAB8"/>
<path d="M148.987 56.8144H73.5014V59.4617H148.987V56.8144Z" fill="#ADCAB8"/>
<path d="M68.9128 46.1425C69.8717 46.1425 70.649 45.3647 70.649 44.4052C70.649 43.4457 69.8717 42.6679 68.9128 42.6679C67.9539 42.6679 67.1765 43.4457 67.1765 44.4052C67.1765 45.3647 67.9539 46.1425 68.9128 46.1425Z" fill="#ADCAB8"/>
<path d="M148.987 102.977H73.5014V105.624H148.987V102.977Z" fill="#ADCAB8"/>
<path d="M148.987 109.885H73.5014V112.532H148.987V109.885Z" fill="#ADCAB8"/>
<path d="M148.987 116.834H73.5014V119.481H148.987V116.834Z" fill="#ADCAB8"/>
<path d="M68.9128 106.162C69.8717 106.162 70.649 105.384 70.649 104.425C70.649 103.465 69.8717 102.687 68.9128 102.687C67.9539 102.687 67.1765 103.465 67.1765 104.425C67.1765 105.384 67.9539 106.162 68.9128 106.162Z" fill="#ADCAB8"/>
<path d="M96.1968 69.9269H14.5515C13.3113 69.9269 12.3191 67.9 12.3191 65.3768V4.57148C12.3191 2.04827 13.3113 0.0214233 14.5515 0.0214233H96.1968C97.4369 0.0214233 98.4291 2.04827 98.4291 4.57148V65.3768C98.4291 67.9 97.3956 69.9269 96.1968 69.9269Z" fill="white"/>
<path d="M96.1968 69.9269H14.5515C13.3113 69.9269 12.3191 67.9 12.3191 65.3768V4.57148C12.3191 2.04827 13.3113 0.0214233 14.5515 0.0214233H96.1968C97.4369 0.0214233 98.4291 2.04827 98.4291 4.57148V65.3768C98.4291 67.9 97.3956 69.9269 96.1968 69.9269ZM14.5515 1.88281C13.8073 1.88281 13.2286 3.08237 13.2286 4.61285V65.4182C13.2286 66.9073 13.8073 68.1482 14.5515 68.1482H96.1968C96.9409 68.1482 97.5196 66.9486 97.5196 65.4182V4.61285C97.5196 3.12374 96.9409 1.88281 96.1968 1.88281H14.5515Z" fill="#ADCAB8"/>
<path d="M73.5015 19.0489C69.8636 15.202 64.8615 12.927 59.5701 12.7202V33.03L73.5015 19.0489Z" fill="#173F35"/>
<path d="M73.5015 21.5721L59.5701 35.5119H79.0409C79.0409 30.3413 77.0566 25.3363 73.5015 21.5721Z" fill="#ADCAB8"/>
<path d="M79.0409 36.9596C79.0409 38.2419 78.9169 39.4828 78.7102 40.7237C78.7102 40.8065 78.6689 40.9306 78.6689 41.0133C78.2141 43.1642 77.4287 45.2738 76.3125 47.1766C76.2712 47.2593 76.1885 47.3834 76.1472 47.4661C75.031 49.2861 73.6668 50.8993 72.0546 52.3057C71.9719 52.3884 71.8892 52.4298 71.8065 52.5125C68.3754 55.408 64.0761 57.0626 59.5701 57.228V36.9182H79.0409V36.9596Z" fill="#ADCAB8"/>
<path d="M57.5858 57.2694C57.8751 57.2694 58.1232 57.2694 58.3712 57.2694V36.9596L43.6544 51.7266C47.4163 55.3253 52.4183 57.3108 57.5858 57.2694Z" fill="#ADCAB8"/>
<path d="M57.6271 15.2021C46.4241 15.2021 37.3295 24.3022 37.3295 35.5119H58.4539V15.2434C58.1645 15.2021 57.9165 15.2021 57.6271 15.2021Z" fill="#FF6720"/>
<path d="M52.7904 36.9596L48.5325 41.2201L48.3671 41.3856L44.6466 45.1083L44.5225 45.2324L40.5126 49.2448L40.3886 49.3688L38.0323 51.7266C33.981 47.8797 31.666 42.5438 31.666 36.9596H52.7904Z" fill="#FF6720"/>
<path d="M16.6184 97.0617C17.9 96.3172 18.3134 94.6626 17.5279 93.3803C17.4452 93.2562 17.3626 93.1321 17.2385 93.008L20.711 57.9726L14.8822 58.3449L13.27 92.8426C12.1951 93.8767 12.1951 95.614 13.27 96.6481C14.1794 97.5581 15.5436 97.7236 16.6184 97.0617Z" fill="#FFB8B8"/>
<path d="M12.5672 56.6903L14.0967 68.3136L13.89 75.4283L20.2976 76.0074L21.5792 70.0923L22.2819 54.4153C22.4059 51.9748 20.587 49.8239 18.148 49.5757C15.6263 49.2861 13.3113 51.0648 12.9806 53.588L12.5672 56.6903Z" fill="#173F35"/>
<path d="M37.0814 158.86H40.9673L42.8276 143.845H37.0814V158.86Z" fill="#FFB7B7"/>
<path d="M36.0893 157.577H43.7371C46.4241 157.577 48.6151 159.77 48.6151 162.458V162.624H36.0893V157.577Z" fill="#173F35"/>
<path d="M5.00208 158.86H8.88798L10.7483 143.845H5.00208V158.86Z" fill="#FFB7B7"/>
<path d="M4.00995 157.577H11.6577C14.3448 157.577 16.5358 159.77 16.5358 162.458V162.624H4.00995V157.577Z" fill="#173F35"/>
<path d="M20.1323 44.0329C24.7898 44.0329 28.5655 40.2549 28.5655 35.5946C28.5655 30.9342 24.7898 27.1563 20.1323 27.1563C15.4747 27.1563 11.6991 30.9342 11.6991 35.5946C11.6991 40.2549 15.4747 44.0329 20.1323 44.0329Z" fill="#FFB8B8"/>
<path d="M21.2071 47.4661L15.3783 48.128C12.4845 52.223 11.7404 57.4349 13.394 62.1918L17.7759 74.9733C17.7759 74.9733 11.6577 87.2585 11.6577 98.675C11.6577 110.091 0 150.794 0 150.794L16.4117 152.49L23.5635 109.099L33.4436 152.283L44.7292 150.463L38.5283 93.8354L34.4357 75.1801L34.2704 66.08C34.2704 66.08 36.0066 59.2549 31.666 54.9117L26.3332 47.4661H21.2071Z" fill="#173F35"/>
<path d="M62.4225 77.4965C62.3398 75.8833 60.9756 74.601 59.3634 74.6837C59.198 74.6837 59.0326 74.7251 58.8673 74.7664L27.0773 52.9675L24.3902 58.7585L56.635 78.4892C57.0897 80.0611 58.7433 80.9711 60.3142 80.5161C61.5957 80.1024 62.5052 78.8615 62.4225 77.4965Z" fill="#FFB8B8"/>
<path d="M21.4965 60.1235L33.4436 64.7563L40.1819 68.7273L44.1091 62.8949L39.1071 58.5517L24.4316 49.617C22.1166 48.2106 19.1401 48.8311 17.6106 51.0234C15.9983 53.2984 16.4944 56.4835 18.7681 58.138L21.4965 60.1235Z" fill="#173F35"/>
<path d="M29.9297 32.6164H17.5692V27.1977C20.2976 26.1222 22.9434 25.2122 24.5556 27.1977C27.532 27.1977 29.9297 29.5968 29.9297 32.6164Z" fill="#FF6720"/>
<path d="M19.7602 26.6599C12.3605 26.7013 10.2935 35.9255 10.2935 41.1788C10.2935 44.1156 11.6164 45.1497 13.6834 45.4806L14.4275 41.5924L16.1224 45.6874C16.7011 45.6874 17.3212 45.6874 17.9413 45.6874L18.5201 44.4879L19.8016 45.6461C25.0104 45.6461 32.5341 45.1911 29.1856 41.2201C24.7623 35.8428 26.2092 26.6186 19.7602 26.6599Z" fill="#FF6720"/>
<path d="M161.554 158.074H156.842L154.609 139.956H161.554V158.074Z" fill="#FFB8B8"/>
<path d="M162.753 162.624H147.623V162.417C147.623 159.149 150.269 156.502 153.535 156.502H162.795L162.753 162.624Z" fill="#173F35"/>
<path d="M198.14 156.047L193.468 156.75L188.549 139.17L194.667 138.095L198.14 156.047Z" fill="#FFB8B8"/>
<path d="M200 160.349L185.035 162.624L184.994 162.417C184.498 159.191 186.73 156.171 189.955 155.716L199.091 154.351L200 160.349Z" fill="#173F35"/>
<path d="M183.63 68.2309L178.421 69.5959L178.752 78.0756L178.793 93.463C177.387 94.4144 177.057 96.3585 178.007 97.7649C178.958 99.1713 180.901 99.5022 182.307 98.5508C183.712 97.5995 184.043 95.6553 183.092 94.249C183.01 94.1662 182.968 94.0835 182.885 93.9594L184.498 78.4892L183.63 68.2309Z" fill="#FFB8B8"/>
<path d="M185.118 73.3187L177.511 70.7541V70.63C177.511 70.5473 176.395 63.3499 176.395 58.3862C176.354 57.2694 176.809 56.1939 177.677 55.4494C178.834 54.3739 180.529 54.1257 181.976 54.7462C183.506 55.3667 184.539 56.8558 184.622 58.5517L185.118 73.3187Z" fill="#E4E4E4"/>
<path d="M170.938 72.6155L159.281 69.5959L153.907 87.7548L153.7 155.427L162.629 155.385L166.35 100.619L190.12 151.207L199.711 150.049L178.834 95.8208C178.834 95.8208 179.992 86.2243 176.354 81.4261L177.139 76.4624L170.938 72.6155Z" fill="#173F35"/>
<path d="M177.387 77.786H176.519L158.619 70.63L167.177 51.5198L171.228 52.2643L170.484 49.2861L179.496 47.0938L181.067 53.3398L183.382 55.4494C184.58 56.5248 184.994 58.2208 184.498 59.7512L179.165 75.7178C179.33 76.7106 178.669 77.6206 177.718 77.786C177.594 77.786 177.511 77.786 177.387 77.786Z" fill="#E4E4E4"/>
<path d="M163.911 63.474L159.198 60.8681L153.617 67.2382L142.993 78.4065C141.298 78.1583 139.727 79.2752 139.479 80.9711C139.231 82.667 140.347 84.2389 142.042 84.487C143.737 84.7352 145.308 83.6184 145.556 81.9225C145.556 81.7984 145.597 81.7156 145.597 81.5915L157.42 71.5401L163.911 63.474Z" fill="#FFB8B8"/>
<path d="M161.472 68.1895L157.751 61.0749L157.834 60.9922C157.875 60.9508 162.05 54.953 165.482 51.3543C166.226 50.527 167.301 50.072 168.417 50.1134C169.988 50.1548 171.393 51.1061 172.013 52.5953C172.675 54.1257 172.427 55.9044 171.31 57.1453L161.472 68.1895Z" fill="#E4E4E4"/>
<path d="M172.84 45.9356C176.79 45.9356 179.992 42.7318 179.992 38.7796C179.992 34.8275 176.79 31.6236 172.84 31.6236C168.89 31.6236 165.688 34.8275 165.688 38.7796C165.688 42.7318 168.89 45.9356 172.84 45.9356Z" fill="#FFB8B8"/>
<path d="M164.241 34.5605C165.44 32.4095 165.895 31.4995 167.466 30.2172C168.83 29.059 170.525 28.7281 171.889 29.8036C176.023 28.0249 180.819 29.9277 182.596 34.0641C184.374 38.2005 182.472 42.9988 178.338 44.7774C174.204 46.5561 169.409 44.6533 167.631 40.5169C167.177 39.4828 166.97 38.4073 166.97 37.2905C166.97 37.001 166.97 36.67 167.011 36.3805C165.812 36.215 165.44 34.7259 164.241 34.5605Z" fill="#FF6720"/>
<path d="M190.616 55.7389C190.285 54.498 190.244 53.2157 190.492 51.9334C190.823 49.4929 191.608 47.1352 192.311 44.7774C193.014 42.4197 193.675 40.0205 193.758 37.5801C193.84 35.1396 193.303 32.575 191.856 30.5895C190.409 28.604 187.888 27.3217 185.449 27.694C183.134 28.0663 181.108 30.1345 181.108 32.4509C180.695 33.1955 181.232 34.2296 181.976 34.6846C182.761 35.1396 183.754 35.2223 184.622 35.4705C186.399 36.0496 187.846 37.3319 188.632 38.9864C189.376 40.6824 189.582 42.5438 189.21 44.3638C188.88 46.1011 188.053 47.7143 187.433 49.4102C186.813 51.1061 186.441 52.9262 186.895 54.6635C187.722 57.2694 190.368 58.8826 193.055 58.4276C191.897 57.9726 190.988 56.9799 190.616 55.7389Z" fill="#FF6720"/>
</svg>
