<svg xmlns="http://www.w3.org/2000/svg" width="98" height="35" viewBox="0 0 98 35" fill="none"><g clip-path="url(#clip0)"><path d="M79.7574 0H83.5455L98.0012 35H93.2163L89.2459 24.7465H74.0244L70.0384 35H65.254L79.7574 0ZM87.9106 21.2958L81.6517 5.1273L75.3649 21.2958H87.9106Z" fill="#FF6720"></path><path d="M45.9698 0C36.1974 0 28.2728 7.83507 28.2728 17.5C28.2728 27.1649 36.1974 35 45.9698 35C55.7422 35 63.665 27.1649 63.665 17.5V0H45.9698ZM57.3869 8.27201C58.9023 10.1005 59.9436 12.2671 60.4203 14.5838H51.0055L57.3869 8.27201ZM48.919 12.5208V3.20901C51.2613 3.68035 53.4519 4.71018 55.3004 6.20903L48.919 12.5208ZM45.9698 15.4376L36.6397 6.20903C39.2701 4.07565 42.568 2.91194 45.9698 2.91676V15.4376ZM31.2238 17.5006C31.219 14.1361 32.3956 10.8743 34.5527 8.27258L55.3004 28.7915C52.6697 30.9247 49.3717 32.0884 45.9698 32.0838C37.8264 32.0838 31.2244 25.5544 31.2244 17.5L31.2238 17.5006ZM57.3869 26.728L48.0563 17.5H60.7158C60.7207 20.8645 59.5441 24.1264 57.3869 26.728ZM55.7527 2.91676H60.7158V7.82531C59.4074 5.87938 57.7202 4.21073 55.7527 2.91676Z" fill="#FF6720"></path><path d="M28.9115 3.94395H16.6972V35H12.2113V3.94395H0V0H28.9115V3.94395Z" fill="#FF6720"></path></g><defs><clipPath id="clip0"><rect width="98" height="35" fill="white"></rect></clipPath></defs></svg>