<svg width="218" height="139" viewBox="0 0 218 139" fill="none" xmlns="http://www.w3.org/2000/svg">
<path d="M192.501 113.896C192.527 117.192 190.59 118.343 188.181 118.369C188.129 118.369 188.076 118.369 188.024 118.369C187.919 118.369 187.815 118.369 187.684 118.369C185.511 118.238 183.809 117.035 183.783 114.001C183.757 110.836 187.762 106.808 188.05 106.52L188.076 106.494C188.076 106.494 192.475 110.601 192.501 113.896Z" fill="#ADCAB8"/>
<path d="M190.066 112.928C190.799 116.146 189.15 117.689 186.794 118.212C186.741 118.212 186.689 118.238 186.637 118.238C186.532 118.264 186.427 118.29 186.296 118.316C184.149 118.656 182.238 117.846 181.558 114.89C180.851 111.804 183.914 107.017 184.123 106.677L184.149 106.651C184.149 106.651 189.333 109.711 190.066 112.928Z" fill="#ADCAB8"/>
<path d="M193.993 115.125C193.024 118.29 190.825 118.787 188.521 118.107C188.469 118.081 188.417 118.081 188.364 118.055C188.26 118.029 188.155 118.003 188.05 117.95C186.008 117.166 184.751 115.518 185.642 112.615C186.558 109.581 191.584 106.939 191.951 106.756L191.977 106.73C192.003 106.756 194.962 111.987 193.993 115.125Z" fill="#ADCAB8"/>
<path d="M188.103 116.799C196.768 116.799 202.187 117.296 202.187 117.898C202.187 118.5 196.794 118.996 188.103 118.996C179.411 118.996 172.395 118.5 172.395 117.898C172.395 117.296 179.437 116.799 188.103 116.799Z" fill="#ADCAB8"/>
<path d="M189.254 78.1681L193.784 95.7444C193.784 95.7444 193.941 108.142 194.962 113.007C195.983 117.872 199.334 129.589 199.334 129.589L203.365 130.269L202.528 113.844C202.528 113.844 202.528 103.957 201.69 101.786C200.852 99.6154 199.177 77.3311 199.177 77.3311L189.254 78.1681Z" fill="#FFB8B8"/>
<path opacity="0.1" d="M189.254 78.1681L193.784 95.7444C193.784 95.7444 193.941 108.142 194.962 113.007C195.983 117.872 199.334 129.589 199.334 129.589L203.365 130.269L202.528 113.844C202.528 113.844 202.528 103.957 201.69 101.786C200.852 99.6154 199.177 77.3311 199.177 77.3311L189.254 78.1681Z" fill="black"/>
<path d="M201.821 4.46236C196.244 4.46236 191.689 9.48417 191.689 15.683V23.5557H194.124L195.538 20.6263L195.197 23.5557H210.774L212.057 20.914L211.743 23.5557H213.497V17.3569C213.445 10.2427 208.235 4.46236 201.821 4.46236Z" fill="#FF6720"/>
<path d="M184.987 75.4217C184.987 75.4217 182.971 83.9745 185.668 84.8115C188.338 85.6485 187.684 75.4217 187.684 75.4217H184.987V75.4217Z" fill="#FFB8B8"/>
<path d="M188.338 32.0301L187.003 33.5209L187.343 62.501L184.306 76.2587L191.009 76.9126L194.386 49.2664L193.365 35.1949L188.338 32.0301Z" fill="#173F35"/>
<path opacity="0.1" d="M188.338 32.0301L187.003 33.5209L187.343 62.501L184.306 76.2587L191.009 76.9126L194.386 49.2664L193.365 35.1949L188.338 32.0301Z" fill="black"/>
<path d="M200.904 22.4311C204.881 22.4311 208.104 19.2108 208.104 15.2384C208.104 11.2659 204.881 8.04565 200.904 8.04565C196.928 8.04565 193.705 11.2659 193.705 15.2384C193.705 19.2108 196.928 22.4311 200.904 22.4311Z" fill="#FFB8B8"/>
<path d="M196.794 19.5802C196.794 19.5802 198.915 30.5131 197.946 31.6639C196.978 32.8147 208.13 29.5453 208.13 29.5453C208.13 29.5453 204.491 22.0649 206.402 17.8278L196.794 19.5802Z" fill="#FFB8B8"/>
<path d="M214.989 67.549C214.989 67.549 217.005 76.1018 214.309 76.9388C211.638 77.7757 212.293 67.549 212.293 67.549H214.989V67.549Z" fill="#FFB8B8"/>
<path d="M199.491 76.1541C199.491 76.1541 196.637 93.2335 196.82 95.7444C197.004 98.2553 196.82 98.5954 196.82 98.5954C196.82 98.5954 193.967 105.971 193.129 110.156C192.291 114.341 190.459 119.703 190.459 119.703C190.459 119.703 188.286 124.568 190.118 124.568C191.951 124.568 194.49 123.888 194.49 123.888C194.49 121.952 195.145 120.069 196.323 118.552C198.339 116.015 204.36 104.114 204.36 102.623C204.36 101.132 205.355 96.7645 205.355 96.7645L209.204 78.168L199.491 76.1541Z" fill="#FFB8B8"/>
<path d="M187.762 64.7765C187.762 64.7765 184.909 79.1881 187.422 79.5282C189.935 79.8682 193.469 77.3573 197.972 80.2082C202.475 83.0591 210.041 82.3791 210.041 82.3791C210.041 82.3791 215.251 69.1445 210.539 65.9535C205.853 62.7626 187.762 64.7765 187.762 64.7765Z" fill="#1D2D28"/>
<path d="M190.93 122.554C191.663 122.24 192.475 122.109 193.286 122.214C194.045 122.318 194.831 122.135 195.459 121.717C195.459 121.717 194.124 126.582 194.281 128.412C194.438 130.243 193.784 138.116 190.249 137.279C186.715 136.442 185.72 133.931 187.055 129.563C188.39 125.195 188.05 120.174 188.05 120.174C188.05 120.174 190.485 117.636 190.956 118.003C191.427 118.369 190.93 122.554 190.93 122.554Z" fill="#1D2D28"/>
<path d="M202.161 128.752C202.161 128.752 200.486 125.065 198.47 128.412C196.454 131.76 196.297 132.597 196.297 132.597C196.297 132.597 190.59 137.802 194.621 138.299C198.653 138.796 201.821 138.142 201.821 137.305C201.821 136.468 203.837 136.625 203.994 135.971C204.151 135.317 203.653 129.092 203.653 129.092L202.161 128.752Z" fill="#1D2D28"/>
<path d="M205.931 25.1512C205.931 25.1512 198.889 26.4851 198.051 26.3282C197.868 26.3021 197.658 26.2759 197.475 26.2759C195.826 26.1974 194.202 26.6159 192.789 27.4267C190.459 28.7868 186.977 31.1931 186.977 33.5209C186.977 37.0257 191.506 43.0676 191.506 43.0676C191.506 43.0676 187.317 57.4792 187.657 58.8131C187.998 60.147 185.144 64.6719 186.977 66.1889C188.809 67.7059 206.428 66.1889 209.622 67.7059C212.816 69.2229 211.298 47.5925 211.298 47.5925C211.298 47.5925 219.859 28.0022 215.487 26.1451C214.073 25.5436 212.869 25.0989 211.848 24.7589C209.91 24.105 207.79 24.2358 205.931 25.1512Z" fill="#173F35"/>
<path d="M212.476 26.3282L216.324 26.9559C216.324 26.9559 218 28.656 218 29.493C218 30.33 217.66 66.5028 217.162 67.6798C216.665 68.8568 211.115 68.3598 211.115 68.3598L212.11 47.7494L212.476 26.3282Z" fill="#173F35"/>
<path d="M204.674 7.5487C203.68 6.21478 202.135 5.43012 200.486 5.40396H200.276C196.454 5.40396 193.339 8.85647 193.339 13.1459H194.621L194.831 11.5766L195.145 13.1459H202.763L203.392 11.812L203.235 13.1459H204.727C205.434 16.6246 204.413 20.0771 201.716 23.5558H204.256L205.538 20.8879L205.224 23.5558H210.094L211.062 17.4093C211.062 12.8059 208.392 8.93493 204.674 7.5487Z" fill="#FF6720"/>
<path d="M206.088 8.20259C208.185 8.20259 209.884 6.50462 209.884 4.41007C209.884 2.31552 208.185 0.617554 206.088 0.617554C203.992 0.617554 202.292 2.31552 202.292 4.41007C202.292 6.50462 203.992 8.20259 206.088 8.20259Z" fill="#FF6720"/>
<path d="M166.687 5.48242H6.98999V107.567H166.687V5.48242Z" fill="#173F35"/>
<path d="M162.158 23.9219H90.2421V107.488H162.158V23.9219Z" fill="#FF6720"/>
<path d="M158.179 31.6901H114.563V33.4425H158.179V31.6901Z" fill="white"/>
<path d="M158.179 35.561H114.563V37.3134H158.179V35.561Z" fill="white"/>
<path d="M129.329 39.4059H114.563V41.1583H129.329V39.4059Z" fill="white"/>
<path d="M68.6175 69.4583H25.0018V71.2107H68.6175V69.4583Z" fill="white"/>
<path d="M68.6175 73.3293H25.0018V75.0817H68.6175V73.3293Z" fill="white"/>
<path d="M39.7672 77.2003H25.0018V78.9527H39.7672V77.2003Z" fill="white"/>
<path d="M147.969 53.242H104.353V54.9944H147.969V53.242Z" fill="white"/>
<path d="M147.969 57.113H104.353V58.8654H147.969V57.113Z" fill="white"/>
<path d="M147.969 60.8794H104.353V62.6318H147.969V60.8794Z" fill="white"/>
<path d="M147.969 64.6719H104.353V66.4243H147.969V64.6719Z" fill="white"/>
<path d="M147.969 68.4383H104.353V70.1907H147.969V68.4383Z" fill="white"/>
<path d="M147.969 72.2308H104.353V73.9832H147.969V72.2308Z" fill="white"/>
<path d="M147.969 75.9971H104.353V77.7495H147.969V75.9971Z" fill="white"/>
<path d="M147.969 79.7896H104.353V81.5421H147.969V79.7896Z" fill="white"/>
<path d="M147.969 83.5822H104.353V85.3346H147.969V83.5822Z" fill="white"/>
<path d="M147.969 87.3485H104.353V89.1009H147.969V87.3485Z" fill="white"/>
<path d="M147.969 91.1411H104.353V92.8935H147.969V91.1411Z" fill="white"/>
<path d="M62.7008 41.5244C62.7008 46.3109 60.5279 50.8619 56.8103 53.8697C56.1297 54.419 55.3966 54.916 54.6374 55.3606C54.1662 55.6221 53.6949 55.8575 53.2237 56.0668C51.6005 56.773 49.8988 57.2176 48.1448 57.3484C47.7259 57.3746 47.2809 57.4007 46.8358 57.4007C45.9719 57.4007 45.1079 57.3222 44.244 57.1915C43.9298 57.1392 43.6418 57.0868 43.3539 57.0084C42.8303 56.9038 42.3329 56.7468 41.8354 56.5899C39.7672 55.9099 37.8823 54.8113 36.2591 53.3466C35.8402 52.9805 35.4475 52.5881 35.081 52.1696C29.1905 45.657 29.688 35.6395 36.2068 29.7545C42.7256 23.8696 52.7525 24.3665 58.6429 30.8792C61.2347 33.8086 62.7008 37.6011 62.7008 41.5244Z" fill="#FF6720"/>
<path d="M166.609 50.1818C151.974 50.1818 140.115 62.0302 140.115 76.651C140.115 80.9405 136.633 84.393 132.366 84.393H119.511C106.762 84.393 96.4206 94.7243 96.4206 107.462H166.635L166.609 50.1818Z" fill="#173F35"/>
<path d="M88.4357 5.48242H85.0323V107.567H88.4357V5.48242Z" fill="#1D2D28"/>
<path d="M20.1062 128.151C20.1324 131.446 18.1951 132.597 15.7865 132.623C15.7341 132.623 15.6818 132.623 15.6294 132.623C15.5247 132.623 15.42 132.623 15.2891 132.623C13.1162 132.493 11.4145 131.29 11.3883 128.256C11.3621 125.091 15.3676 121.063 15.6556 120.775L15.6818 120.749C15.6818 120.749 20.08 124.855 20.1062 128.151Z" fill="#ADCAB8"/>
<path d="M15.7079 133.251C24.3832 133.251 31.4159 132.759 31.4159 132.153C31.4159 131.546 24.3832 131.054 15.7079 131.054C7.03268 131.054 0 131.546 0 132.153C0 132.759 7.03268 133.251 15.7079 133.251Z" fill="#ADCAB8"/>
</svg>
