<svg xmlns="http://www.w3.org/2000/svg" viewBox="0 0 65.58 23.9"><defs><style>.cls-1{fill:#fff;}</style></defs><g id="Camada_2" data-name="Camada 2"><g id="Camada_1-2" data-name="Camada 1"><path class="cls-1" d="M16.3,11.66H8.24l0-.23,1.23-.16v-10l-.67,0-.56-.08,0-.21H16c.07.88.15,1.83.23,2.78l-.18.08c-.1-.13-.26-.24-.3-.39-.47-1.55-1.07-2-2.62-2.16-1.81-.14-1.82-.14-1.85,1.66,0,.94,0,1.89,0,2.87.67.09,1.35.16,1.78-.37s.52-1,.9-1.52V8.13l-.14,0a4.32,4.32,0,0,0-.77-1.53A5.39,5.39,0,0,0,11.3,6V11.2a3.64,3.64,0,0,0,4.88-2.45,1.66,1.66,0,0,1,.29-.42,1.79,1.79,0,0,1,.15.52c-.09.92-.21,1.84-.32,2.81Z"/><path class="cls-1" d="M32.38,2.76q0,3.09,0,6.18a9.14,9.14,0,0,0,.09,1.38,1.06,1.06,0,0,0,1,1c.1,0,.18.11.25.29h-3l-.24-.23c.14,0,.28-.05.43-.06.81-.09,1-.68,1-1.35,0-1.33.06-2.65.06-4,0-1.18,0-2.36-.05-3.54,0-.78-.21-1-1-1.23-.16,0-.32-.1-.47-.15l0-.26a6.64,6.64,0,0,0,1.18,0,2.32,2.32,0,0,1,2.59,1.32C35.57,4.11,37,6,38.43,7.87l.4.47.12-.1c0-1.9,0-3.79,0-5.69A1.2,1.2,0,0,0,37.8,1.19l-.23-.1.09-.17h3.25a2.79,2.79,0,0,1-.48.3,1.1,1.1,0,0,0-1,1.1c-.06.69-.1,1.39-.1,2.08,0,2.26,0,4.51,0,6.76,0,.24,0,.48,0,.72l-.17,0-6.7-9.2-.14,0Z"/><path class="cls-1" d="M27,8.35c-.08-2.11-.14-4.22-.28-6.32,0-.29-.5-.54-.78-.79a1.73,1.73,0,0,0-.39-.18l0-.15h3.13c-.12.15-.16.26-.21.27-1,.13-1.15.87-1.15,1.67,0,2.78,0,5.56,0,8.35v.65l-.2.08L20.34,2.61c0,.33-.05.47-.05.61q0,3.06,0,6.13c0,1,0,1.9,1.3,2.09,0,0,0,.08.06.19H18.34c.26-.16.35-.27.46-.28a1.1,1.1,0,0,0,1-1.13c.05-.7.07-1.39.07-2.09,0-1.87,0-3.75,0-5.62,0-.84-.21-1.07-1-1.27-.16,0-.31-.1-.47-.15l0-.25a8.64,8.64,0,0,0,1.44,0A2,2,0,0,1,22,1.93c1.39,2,2.9,4,4.36,6,.12.17.26.32.39.48l.22,0Z"/><path class="cls-1" d="M58.44,8a4.73,4.73,0,0,1,.36.66A4.11,4.11,0,0,0,61,11.32a2.64,2.64,0,0,0,2.15.07,2,2,0,0,0,1.32-2,1.86,1.86,0,0,0-1.38-1.9c-.86-.33-1.77-.56-2.63-.89a2.89,2.89,0,0,1-2.07-3.5,3,3,0,0,1,3-2.49,7.5,7.5,0,0,1,1.63.15c.57.08,1.16.53,1.68-.33a3.76,3.76,0,0,1,.13.56c0,.76,0,1.52,0,2.28a1.76,1.76,0,0,1-.17.52,3,3,0,0,1-.32-.47c-.13-.28-.2-.6-.33-.88a2.68,2.68,0,0,0-3.45-1.26,1.82,1.82,0,0,0-1.15,1.73,1.54,1.54,0,0,0,1,1.58c.82.33,1.66.6,2.5.88,2.53.84,3.39,3.66,1.65,5.51a3.77,3.77,0,0,1-3.86.89c-.29-.07-.56-.2-.84-.29-.46-.15-.94-.41-1.19.31l-.26.09-.16-.23c0-1.19,0-2.39,0-3.58L58.44,8Z"/><path class="cls-1" d="M49.28.88h3.47c-.17.18-.25.32-.36.36A2.78,2.78,0,0,0,50.8,2.6q-1.12,1.86-2.22,3.75a1.07,1.07,0,0,0-.21.51c0,1.47,0,2.94,0,4.41l1.33.15v.2H45.34l0-.19,1.33-.17c0-1.47,0-3,0-4.45a1,1,0,0,0-.19-.46c-.91-1.53-1.85-3.06-2.75-4.6a.92.92,0,0,0-1-.56,1.7,1.7,0,0,1-.52-.1l0-.18H46.3l0,.16-.83.24L48.1,6l.22,0C49,4.81,49.63,3.63,50.2,2.4c.29-.61,0-.94-.65-1.17a2.11,2.11,0,0,1-.33-.18l.06-.17Z"/><path class="cls-1" d="M3.41,1.26,2.13,1.15l0-.24H6.58l0,.16c-.16.05-.33.16-.48.13-.68-.11-.81.22-.8.82,0,2.23,0,4.46,0,6.69a5,5,0,0,1-.15,1.44A3,3,0,0,1,.58,11.37,1.79,1.79,0,0,1,0,9.71a1.12,1.12,0,0,1,1.14-1,1.05,1.05,0,0,1,1,1c0,.56-.31.87-1,1l-.27.06a1.19,1.19,0,0,0,1.22.79c.59,0,1.12-.07,1.29-.74a5.73,5.73,0,0,0,.16-1.31q0-3.94-.08-7.89a3.21,3.21,0,0,0,0-.39Z"/><path class="cls-1" d="M55.17,0c-.43.7-1.14,1.28-1,2.27l.37-.09a.84.84,0,0,1,1.1.65A.9.9,0,0,1,55.07,4a.94.94,0,0,1-1.24-.54A2.75,2.75,0,0,1,55.17,0Z"/><path class="cls-1" d="M52,20.25A1.7,1.7,0,0,1,51.62,19a11.62,11.62,0,0,1,1.29-5.58A6.35,6.35,0,0,1,55,10.93a4,4,0,0,1,1.22-.56A1.35,1.35,0,0,1,57.9,12,4,4,0,0,1,56,14.78a6.73,6.73,0,0,1-1.21.58c-.09,0-.22,0-.32-.06.08-.08.14-.21.24-.24a4.28,4.28,0,0,0,2.78-2.67A1.39,1.39,0,0,0,57.33,11c-.15-.21-.33-.29-.55-.11a5,5,0,0,0-.87.78,12.13,12.13,0,0,0-2.59,5.77,5.71,5.71,0,0,0,.09,2.36,2.61,2.61,0,0,0,.06-.27,7.37,7.37,0,0,1,1.35-3.37,4.28,4.28,0,0,1,.86-.84.87.87,0,0,1,1-.06,1,1,0,0,1,.56.94,2.58,2.58,0,0,1-1.47,2.39,4.42,4.42,0,0,1-1.79.55c.07.1.11.18.16.24a4.07,4.07,0,0,0,3.21,1.31,2.26,2.26,0,0,0,2-1.16l.24-.17c0,.1.06.23,0,.31a2.15,2.15,0,0,1-1.36,1.16,4,4,0,0,1-4-.87c-.15-.12-.3-.25-.46-.4-.18.34-.09.84-.51.94a4,4,0,0,1-1.08,0,2.85,2.85,0,0,1-2.08,1.67,3,3,0,0,1-2.68-.67A2.63,2.63,0,0,1,45.73,23a3.34,3.34,0,0,1-2.36-.27,2,2,0,0,1-1-2,8.18,8.18,0,0,1,.52-2.9.88.88,0,0,1,1.42-.33.71.71,0,0,1,.18.49,7.77,7.77,0,0,1-.24.95A5.76,5.76,0,0,0,44,21.13a2.85,2.85,0,0,0,.21.81,1.06,1.06,0,0,0,1.41.69,2.2,2.2,0,0,0,1.57-1.22v-.28a3,3,0,0,1,0-3,4.18,4.18,0,0,1,1.18-1.49,1,1,0,0,1,1.64.54,4.19,4.19,0,0,1-.23,2.16l-.21.14c0-.09-.09-.19-.07-.27.07-.47.19-.93.23-1.39a1.82,1.82,0,0,0-.13-.76c-.1-.26-.3-.27-.43,0a5.95,5.95,0,0,0-.79,3.41c.13,1.28.79,1.78,2,1.36a2.65,2.65,0,0,0,1.45-1.16c.06-.1.1-.22.17-.37Zm2-1.57.14,0,.19-.12a5.12,5.12,0,0,0,1.93-2.62,1.54,1.54,0,0,0,0-.37c-.13,0-.27,0-.4.06l-.16.1a6.08,6.08,0,0,0-1.73,3Zm0-6.33-.1,0c-.31.57-.65,1.12-.92,1.7a10.53,10.53,0,0,0-1.09,4.71c0,.34.07.69.11,1h.11a11.3,11.3,0,0,1,.34-3.84A13.67,13.67,0,0,1,54,12.35ZM42.78,21.47c0-.57,0-1.21.12-1.84s.27-1.22.41-1.86c-.56.49-.88,3-.53,3.7Zm5-3.87a3.26,3.26,0,0,0-.63,2.1c.21-.7.42-1.38.63-2.1Z"/><path class="cls-1" d="M37.05,19.62c0,.66-.06,1.31-.07,2,0,.4,0,.81,0,1.21s0,.62.35.74l.08.17-.18.14c-.9.14-1.41,0-1.71-1a6.71,6.71,0,0,1-.17-2.32,36.46,36.46,0,0,1,.94-5.78c0-.2.15-.27.35-.3.52-.08,1.3.56,1.11,1.2s-.3,1.43-.44,2.15a1.09,1.09,0,0,0,0,.2l.15-.1a4.44,4.44,0,0,1,2.87-1.4.41.41,0,0,0,.37-.28,4.26,4.26,0,0,0,.47-2.42,1.06,1.06,0,0,0-.31-.6,2.59,2.59,0,0,0-2.15-.6A6.08,6.08,0,0,0,35,14.27a4.43,4.43,0,0,0-1.27,2.19,3.18,3.18,0,0,0-.07.92,1.22,1.22,0,0,0,1,1.15c.12,0,.31,0,.24.22s-.21.1-.3.08a1.51,1.51,0,0,1-1.27-1.48,3.71,3.71,0,0,1,.84-2.6,6.19,6.19,0,0,1,5.43-2.49,2.88,2.88,0,0,1,2.61,2.12,3.35,3.35,0,0,1,0,2.19,6.24,6.24,0,0,1-2,3.27,2.14,2.14,0,0,1-2.87-.14l-.12-.1-.09,0ZM40.4,16.9l-.13,0a3.89,3.89,0,0,0-2.73,1.5,1,1,0,0,0-.15.88c.07.3.21.36.47.21s.48-.28.72-.44A5.59,5.59,0,0,0,40.4,16.9Zm-4.54,6a28.46,28.46,0,0,1,.85-8.07l-.12.2c-.27,1.37-.57,2.74-.78,4.12a9.69,9.69,0,0,0,0,3.48,2.76,2.76,0,0,0,.08.27ZM40.77,17c-.28.4-.53.8-.83,1.17s-.63.69-.94,1A3.93,3.93,0,0,0,40.77,17Z"/><path class="cls-1" d="M43.47,16.14c.1-.36.18-.74.31-1.09a.46.46,0,0,1,.32-.22c.46,0,1.07.43.79,1-.15.28-.25.59-.38.88a.28.28,0,0,1-.45.12.83.83,0,0,1-.51-.66l-.08,0Z"/></g></g></svg>