<svg xmlns="http://www.w3.org/2000/svg" viewBox="0 0 81.93 32.55"><defs><style>.cls-1{fill:#fff;}</style></defs><g id="Camada_2" data-name="Camada 2"><g id="Camada_1-2" data-name="Camada 1"><path class="cls-1" d="M13.61,21.16c-.52,0-.94-.26-1-1.37a27.16,27.16,0,0,1,1.58-9.42,36.43,36.43,0,0,1-10.73,2.8,4.27,4.27,0,0,0-3,1.24,1.91,1.91,0,0,0-.08,1.65c0,.1-.07.13-.1.09a2,2,0,0,1,0-2,3.84,3.84,0,0,1,3.1-1.47A37.12,37.12,0,0,0,14.31,9.58c1.53-4.25,3.09-7.46,4.79-9a2.32,2.32,0,0,1,3.12.06c.93,1.19.91,3.5-.93,5.59-1,1.14-4.91,3.21-4.93,3.26A44.08,44.08,0,0,0,13.88,20c0,.54,2-.4,7.4-6.15a.34.34,0,0,1,.47,0c.13.13-.08.24-.2.38-1,1.15-6.4,6.94-7.94,6.94ZM20.81.57a1.18,1.18,0,0,0-.63.19c-.72.44-1.88,3.45-3.45,7.73a12.2,12.2,0,0,0,4.08-2.73c1.78-2,1.51-3.92.9-4.7a1.14,1.14,0,0,0-.9-.49Z"/><path class="cls-1" d="M21.07,19a2,2,0,0,1-.5-.06,1,1,0,0,1-.61-.6c-.54-1.47,1.32-6.48,1.73-7.58.07-.17.15-.49.54-.42.18,0,1.52.91,1.33,1.38A47.59,47.59,0,0,0,21.37,18c-.15.49,1.31-.6,5.47-6.08a.3.3,0,0,1,.45-.06.35.35,0,0,1,.06.48C23.82,17,22.14,19,21.07,19ZM21,18.1h0Z"/><path class="cls-1" d="M60.63,20.57a2,2,0,0,1-.5-.05,1,1,0,0,1-.61-.6c-.54-1.47,1.32-6.49,1.73-7.58.07-.18.15-.49.54-.42.18,0,1.52.91,1.33,1.38a47.55,47.55,0,0,0-2.19,6.31c-.15.5,1.31-.59,5.46-6.07a.32.32,0,0,1,.46-.06.35.35,0,0,1,.06.48c-3.53,4.69-5.21,6.61-6.28,6.61Z"/><path class="cls-1" d="M24,23.82l-.2,0c-.44-.15-.55-.74-.59-1.17-.34-3.46,3-10.56,3.17-10.86a1.78,1.78,0,0,1,1.15-.27,1.91,1.91,0,0,1,.38,1.12c0,.07-3.23,5.94-3.54,8.91-.07.64.06.92.36.75a86,86,0,0,1,7.73-6.21c.15-.1.24-.26.32-.09s.15.54,0,.64c-2.64,1.67-8.19,7.21-8.78,7.21Z"/><path class="cls-1" d="M26.34,11.76a1,1,0,0,1,1.24-.45c.68.34.38,1.14.29,1.3"/><path class="cls-1" d="M38.92,23.3a.89.89,0,0,1-.9-.74c-.26-.89,1.37-5.1,1.81-6.2a29,29,0,0,0-5.95,4c-1.12,1.06-2.05,1.46-2.48,1.19-.73-.47-.57-2.63.05-4.48,1.54-4.63,4.23-6.24,5.17-6a1.41,1.41,0,0,1,1,.79c.3.66-.13,1.54-4.05,4.25-.11.31-1.67,4.68-1.55,4.77s.28.09,1.44-1a32.19,32.19,0,0,1,6.66-4.39c2.84-6.93,6.22-10.61,8.57-10.13A1.35,1.35,0,0,1,49.75,6.6C50,8.52,48,12.12,45.34,13.44c-1.44.72-2.15,1.08-3.36,1.73-.53,1.31-1.26,3.13-1.8,4.69s-.47,1.92-.4,1.95a9.56,9.56,0,0,0,1.33-1c1.87-1.49,4.41-3.36,7-3.74.18,0,.37-.06.39.13s-.12.18-.29.2c-2.45.36-4.91,2.51-6.72,3.95-1.19.94-2.09,2-2.59,2ZM34,15c1.8-1.13,3.66-2.6,2.52-3-.44-.15-1.37.19-2.52,3ZM48.21,5.94c-.44,0-3.39,2.64-5.77,8.23,1.12-.6,1.58-.83,2.61-1.34,2.5-1.26,4.24-4.62,4.05-6.15C49,6.14,48.75,6,48.54,6a.86.86,0,0,0-.33,0Z"/><path class="cls-1" d="M48.21,20.71c-1.28,0-1.09-1.45-.65-2.85,1.35-4.26,4-5.35,4.91-5.56a1.72,1.72,0,0,1,1.56.2A3.55,3.55,0,0,1,54.71,14c0,.18,0,.35-.14.39s-.31-.08-.38-.25a3.66,3.66,0,0,0-.65-.95c-.06-.06-.89-.13-2.89,2.61C49,18,49.06,19,49.08,19.06s1-.52,2-1.3A27.15,27.15,0,0,1,55.23,15c.16-.08.34-.12.42,0a.33.33,0,0,1-.15.45,27.69,27.69,0,0,0-4,2.82c-1.55,1.23-2.38,2.41-3.29,2.41Z"/><path class="cls-1" d="M52.58,22.85c-.92,0-.95-.83-.9-1.26.17-1.72,2.8-6.17,2.91-6.38s.61-1,1.2-.69.27,1.07.18,1.24-2.68,4.57-2.84,6.16a44.29,44.29,0,0,0,5.61-3.87l1.2-.94c.14-.11.35-.31.46-.16a.37.37,0,0,1-.07.48l-1.2.94c-3.83,3-5.36,4.44-6.55,4.48Z"/><path class="cls-1" d="M67.42,14.77c-.09.22-1.66,3.09-3.08,5.92a8.41,8.41,0,0,1,3-.26c1.08,0,2.17.09,3.22.15,4.29.25,8.36.49,11.22-1.65.14-.11.27,0,.16.1-3.09,2.22-7,2.49-11.42,2.23-1-.06-2.13-.12-3.2-.15a8.92,8.92,0,0,0-3.38.43c-2,3.9-7,11-7.49,11s-4.22-2.3-.15-7a15.06,15.06,0,0,1,6-4.3c.92-1.81,2.88-6,3.38-7.08,0,0,.38-1,1.24-.71s.51,1.29.51,1.29Zm-5.67,7.49a11.51,11.51,0,0,0-5,3.8c-2.42,3-1.74,4.67-.87,5.29.41.29,5.92-9.09,5.92-9.09Z"/></g></g></svg>