<svg xmlns="http://www.w3.org/2000/svg" viewBox="0 0 119 18.33"><defs><style>.cls-1{fill:#fff;}</style></defs><g id="Camada_2" data-name="Camada 2"><g id="Camada_1-2" data-name="Camada 1"><path class="cls-1" d="M15.14,2.68a8.67,8.67,0,0,0-12.54,0A9.28,9.28,0,0,0,0,9.17a9.25,9.25,0,0,0,2.6,6.48,8.67,8.67,0,0,0,12.54,0,9.25,9.25,0,0,0,2.6-6.48,9.28,9.28,0,0,0-2.6-6.49Zm-.64,12.4L12,9.82l.72-1.05a3.26,3.26,0,0,0,.66-2.43,2.41,2.41,0,0,0-1.27-1.58l-.1,0H8.34v7.48L9.18,11V5.58h2.64a1.55,1.55,0,0,1,.76,1,2.43,2.43,0,0,1-.52,1.74L8.51,13.46h1l1.94-2.83,2.36,5a7.86,7.86,0,0,1-5,1.78,8.18,8.18,0,0,1-8-8.29,8.57,8.57,0,0,1,.79-3.59H6.84v7.88h.85V4.71H2.11A7.94,7.94,0,0,1,8.87.87a8.17,8.17,0,0,1,8,8.3,8.42,8.42,0,0,1-2.4,5.91Z"/><polygon class="cls-1" points="29.61 10.56 29.61 7 31.45 7 31.45 6.27 28.9 6.27 28.9 11.29 29.61 10.56 29.61 10.56"/><polygon class="cls-1" points="27.67 12.56 28.38 11.83 28.38 6.27 25.76 6.27 25.76 7 27.67 7 27.67 12.56 27.67 12.56"/><path class="cls-1" d="M34.85,12l.66-1.44h2.92L39.12,12h.78l-3-6.25L34.08,12Zm2.08-4.57,1.15,2.4H35.84l1.09-2.4Z"/><path class="cls-1" d="M54.61,12l.65-1.44h2.93L58.87,12h.79l-3-6.25L53.83,12Zm2.08-4.57,1.15,2.4H55.59l1.1-2.4Z"/><path class="cls-1" d="M79.32,12,80,10.58H82.9L83.59,12h.78l-3-6.25L78.55,12ZM81.4,7.45l1.15,2.4H80.31l1.09-2.4Z"/><path class="cls-1" d="M90.18,12l.66-1.44h2.92L94.45,12h.78l-3-6.25L89.41,12Zm2.08-4.57,1.15,2.4H91.17l1.09-2.4Z"/><polygon class="cls-1" points="48.69 12.03 44.97 12.03 44.97 6.23 45.68 6.23 45.68 11.3 48.69 11.3 48.69 12.03 48.69 12.03"/><path class="cls-1" d="M70.41,12h.84l1.6-1.87L73.94,12h.77l-1.4-2.41.59-.69a1.85,1.85,0,0,0,.54-1.61,1.7,1.7,0,0,0-1-1l-.07,0H70.26v4.95l.7-.8V6.81h2.17a1.1,1.1,0,0,1,.63.63,1.4,1.4,0,0,1-.43,1.14L70.41,12Z"/><path class="cls-1" d="M102.16,12.31a3.84,3.84,0,0,1-2.5-1l.5-.52a2.89,2.89,0,0,0,2.56.68.68.68,0,0,0,.41-.7c0-.65-.57-.92-1.52-1.29-.8-.32-1.72-.68-1.81-1.6a1.45,1.45,0,0,1,.34-1.13,2.27,2.27,0,0,1,1.72-.65,2.78,2.78,0,0,1,1.88.92l-.52.49a2.08,2.08,0,0,0-1.36-.68,1.59,1.59,0,0,0-1.2.41.72.72,0,0,0-.16.57c0,.44.57.68,1.36,1s2,.78,2,2a1.4,1.4,0,0,1-.84,1.37,2.23,2.23,0,0,1-.83.15Z"/><path class="cls-1" d="M111,12.31a3.87,3.87,0,0,1-2.51-1l.5-.52a2.91,2.91,0,0,0,2.57.68.68.68,0,0,0,.41-.7c0-.65-.58-.92-1.52-1.29s-1.72-.68-1.81-1.6A1.41,1.41,0,0,1,109,6.77a2.24,2.24,0,0,1,1.72-.65,2.78,2.78,0,0,1,1.88.92l-.52.49a2.14,2.14,0,0,0-1.36-.68,1.59,1.59,0,0,0-1.2.41.69.69,0,0,0-.16.57c0,.44.57.68,1.36,1s2,.78,2,2a1.4,1.4,0,0,1-.85,1.37,2.14,2.14,0,0,1-.82.15Z"/><polygon class="cls-1" points="119 12.02 118.14 12.02 118.14 6.12 119 6.12 119 12.02 119 12.02"/></g></g></svg>