<svg xmlns="http://www.w3.org/2000/svg" viewBox="0 0 122.01 30.37"><defs><style>.cls-1{fill:#fff;}</style></defs><g id="Camada_2" data-name="Camada 2"><g id="Camada_1-2" data-name="Camada 1"><path class="cls-1" d="M0,10.62H2a.31.31,0,0,1,.34.23c.71,1.9,1.43,3.79,2.15,5.69,0,.08.07.16.12.3a3.13,3.13,0,0,0,.13-.33Q5.86,13.68,7,10.85a.31.31,0,0,1,.36-.24,8,8,0,0,0,1,0,.32.32,0,0,1,.37.24c.76,1.9,1.53,3.79,2.29,5.68,0,.09.08.17.13.3.22-.61.43-1.17.63-1.73.51-1.42,1-2.84,1.54-4.27a.27.27,0,0,1,.3-.22c.56,0,1.11,0,1.7,0,0,.1-.06.17-.09.25-1.13,2.93-2.27,5.86-3.39,8.8a.32.32,0,0,1-.35.24,7.69,7.69,0,0,0-1,0,.31.31,0,0,1-.34-.24c-.77-2-1.56-3.92-2.34-5.88l-.12-.29-.13.3q-1.18,2.93-2.36,5.86a.33.33,0,0,1-.37.25,8.51,8.51,0,0,0-1,0,.27.27,0,0,1-.3-.22q-1.69-4.41-3.4-8.8L0,10.67v-.05Z"/><path class="cls-1" d="M58.11,0a13.51,13.51,0,0,1,5,26.07.75.75,0,0,0-.34.27,15,15,0,0,1-4.51,4H58a15.12,15.12,0,0,1-4.5-4,.8.8,0,0,0-.32-.26,13.18,13.18,0,0,1-8.37-10.51A13.4,13.4,0,0,1,55.59.31C56.42.15,57.27.1,58.11,0ZM52.26,24.25l0-.1a14,14,0,0,1-.43-9.7.53.53,0,0,0,0-.35,7,7,0,0,1-.47-4.61c.09-.36.21-.7.32-1.08h-1.2L50.27,7.2a2.39,2.39,0,0,1,.36,0c.46,0,.94,0,1.4.06a.38.38,0,0,0,.4-.18,6.85,6.85,0,0,1,6.87-2.8,6.7,6.7,0,0,1,4.52,2.83.32.32,0,0,0,.35.15c.49,0,1,0,1.48-.06a2.09,2.09,0,0,1,.32,0c-.06.42-.11.81-.17,1.21H64.6l0,.12a7,7,0,0,1-.2,5.64l0,.26A14.75,14.75,0,0,1,65,17.58a13.35,13.35,0,0,1-.85,6.16c-.07.16-.13.32-.21.5a12.22,12.22,0,1,0-11.7,0Zm6.43-10H57.51c-.13-2.68-2.74-4.95-4.6-5.48a5.68,5.68,0,0,0,1.7,7,5.75,5.75,0,0,0,7.56-.48,5.64,5.64,0,0,0,1.11-6.51c-2.43,1.08-4.18,2.7-4.59,5.52ZM58.12,29a13.48,13.48,0,0,0,3.63-3.43.32.32,0,0,0,0-.43,8.51,8.51,0,0,1-1.24-5.92c.08-.55.23-1.09.36-1.64a7.13,7.13,0,0,1-5.55,0c.82,3.45.64,4.8-1,7.8A13.18,13.18,0,0,0,58.12,29ZM62.64,7.6a5.72,5.72,0,0,0-9,0,8.77,8.77,0,0,1,4.52,4.07c1.64-2.44,2.14-2.89,4.53-4.08Zm-9,16.49c1.56-2,1.08-6.84-.83-8.39a12.47,12.47,0,0,0,.83,8.39Zm9,0a12.46,12.46,0,0,0,.84-8.41,7.35,7.35,0,0,0-.84,8.41Z"/><path class="cls-1" d="M74.27,19.89V10.63h8a3.94,3.94,0,0,1,.84.1,1.51,1.51,0,0,1,1.22,1.5q0,.69,0,1.38a1.35,1.35,0,0,1-1,1.39l-.44.13.47.13a1.46,1.46,0,0,1,1.06,1.32,15.32,15.32,0,0,1,0,1.66,1.44,1.44,0,0,1-1.09,1.41,5.48,5.48,0,0,1-1.5.25c-2.45,0-4.9,0-7.35,0Zm2.13-4v2.34h5a2.25,2.25,0,0,0,.52-.07.46.46,0,0,0,.41-.45c0-.43,0-.87,0-1.3a.47.47,0,0,0-.42-.46,4.15,4.15,0,0,0-.7-.07H76.4Zm0-3.74v2.2h5a1.34,1.34,0,0,0,.4-.06.58.58,0,0,0,.51-.62c0-.23,0-.46,0-.7,0-.54-.16-.72-.68-.81a2.68,2.68,0,0,0-.4,0H76.4Z"/><path class="cls-1" d="M112.33,19.88V12.29h5a6.42,6.42,0,0,1,2.53.43,3.24,3.24,0,0,1,2.1,3,4.29,4.29,0,0,1-.25,1.88,3.19,3.19,0,0,1-2,1.86,7.65,7.65,0,0,1-2.64.43c-1.55,0-3.09,0-4.63,0l-.19,0Zm1.87-1.41c.51,0,1,0,1.49,0,.82,0,1.64,0,2.46-.12A2,2,0,0,0,120,16.93a3.34,3.34,0,0,0,.07-1.54,1.87,1.87,0,0,0-1.45-1.59,3.4,3.4,0,0,0-.71-.12l-3.58,0-.11,0v4.79Z"/><path class="cls-1" d="M107.24,17.34v-5h1.66v7.6c-.41,0-.81,0-1.21,0l-.24-.13L101.53,15l-.33-.25v5.09H99.51V12.29h1.22l.21.12,6,4.68.32.24Z"/><path class="cls-1" d="M39.52,16.6H35.89v1.87h6.35v1.41H34V12.3h8.15v1.33H35.89v1.65h3.63V16.6Z"/><path class="cls-1" d="M31.07,12.3c0,.23,0,.43,0,.63a.52.52,0,0,1-.15.27l-5.29,5.06-.23.15.06.08h5.6v1.4H22.49c0-.4-.11-.76.27-1.11,1.7-1.6,3.36-3.24,5-4.86l.23-.18L28,13.66H23.05V12.3Z"/><path class="cls-1" d="M97.58,19.9h-2l-.2-.16c-.26-.44-.51-.88-.76-1.33a.3.3,0,0,0-.31-.18H89.74a.33.33,0,0,0-.33.19c-.24.44-.49.86-.73,1.29a.32.32,0,0,1-.33.21c-.53,0-1,0-1.63,0l.15-.27q2.11-3.55,4.22-7.11a.4.4,0,0,1,.41-.24c.44,0,.89,0,1.33,0l.26.14c1.49,2.45,3,4.91,4.44,7.36l0,.11ZM92,13.68l-1.7,3.15H93.8L92,13.68Z"/><path class="cls-1" d="M17.69,12.29h1.82v7.58H17.69V12.29Z"/><path class="cls-1" d="M58.13,24.87l.51-1,.7.35c-.21.41-.4.8-.62,1.18a.51.51,0,0,0,0,.63,2.52,2.52,0,0,1,.16.29,3.1,3.1,0,0,0,1-2.26l.75,0a4.14,4.14,0,0,1-2,3.54c-.16-.32-.33-.64-.51-1-.19.35-.36.68-.55,1a6,6,0,0,1-2-3.55l.78-.07a4.24,4.24,0,0,0,1,2.23c.32-.4.33-.48.11-.91s-.37-.72-.57-1.11l.69-.35.52,1Z"/></g></g></svg>