<svg xmlns="http://www.w3.org/2000/svg" viewBox="0 0 99 27"><defs><style>.cls-1{fill:#fff;}</style></defs><g id="Camada_2" data-name="Camada 2"><g id="Camada_1-2" data-name="Camada 1"><path class="cls-1" d="M13.61,0a13.5,13.5,0,1,1,0,27,13.5,13.5,0,1,1,0-27Zm0,26.74A13.31,13.31,0,0,0,27,13.48a13.36,13.36,0,0,0-26.72,0A13.32,13.32,0,0,0,13.64,26.74Z"/><path class="cls-1" d="M17.84,8.51a7.78,7.78,0,0,1,1.5,3.05c.21.82.33,1.67.52,2.5a1,1,0,0,0,1.24.8c.48-.1.62-.34.36-.75A1,1,0,0,1,21.37,13a1.91,1.91,0,0,1,.26,2.27,1.23,1.23,0,0,1-1.14.51,1.14,1.14,0,0,1-.92-.9c-.09-.33-.13-.67-.22-1.13a6.46,6.46,0,0,1-3,3,4.27,4.27,0,0,1-.68.33c-1.12.44-1.7.19-2.16-1C11.88,17.24,10,17.39,8,17.56c.45-.17.9-.33,1.34-.51,1.11-.47,2.23-.95,3.33-1.44.84-.38.83-.39,1.38-1.33,0,.18-.09.36-.14.58a.77.77,0,0,0,.28-.06c.59-.37,1.19-.74,1.76-1.15.35-.25.31-.52-.1-.64a3.71,3.71,0,0,0-1-.13c-.44,0-.85-.06-1-.57a1.44,1.44,0,0,1,.66-1.55c.44-.26.78,0,1.09.25a2.47,2.47,0,0,1-.12,3.77c-.49.38-1,.69-1.66,1.11.26.15.44.35.62.34A3.57,3.57,0,0,0,16,16c1-.63,2-1.4,2.92-2.12a.82.82,0,0,0,.23-1c-.39-1-.79-1.94-1.16-2.93a11.94,11.94,0,0,1-.36-1.3l.2-.07ZM14.45,11.9h.92c-.38-.32-.64-.43-.92,0Z"/><path class="cls-1" d="M4.81,11.47a15.21,15.21,0,0,0-.25,1.76A2.24,2.24,0,0,0,6.9,15.52a8.05,8.05,0,0,0,3.93-1.08c.56-.28,1.08-.65,1.62-1l0-.19c-.25-.08-.5-.18-.76-.24-.45-.12-.93-.18-1.37-.33a.89.89,0,0,1-.62-1.16,5.15,5.15,0,0,1,2.17-3,.7.7,0,0,1,1,0c.33.37.21.75,0,1.14-.68-.6-.74-.62-1.45,0a8.58,8.58,0,0,0-1.19,1.22c-.34.41-.24.75.25.95a6.4,6.4,0,0,0,1.22.3c1.15.18,1.47.9.79,1.86a2.4,2.4,0,0,1-.41.43,9.63,9.63,0,0,1-4.87,2,2.6,2.6,0,0,1-2.94-3.28c.12-.58.31-1.15.47-1.72l.09,0Z"/><path class="cls-1" d="M7.79,7.67c-.22.92-.44,1.74-.6,2.57a2,2,0,0,0,.06.93.82.82,0,0,0,.47.44c.12,0,.32-.17.48-.28a1.93,1.93,0,0,0,.22-.26,2.75,2.75,0,0,1-.06.38c-.16.41-.24,1-.85.88s-.58-.64-.63-1.08a8.08,8.08,0,0,1,.91-3.58Z"/><path class="cls-1" d="M22.65,9.27l-2,1.06a3.09,3.09,0,0,1,1.95-1.2l.09.14Z"/><path class="cls-1" d="M16,6.27l2-1,.09.15C17.55,6,16.74,6,16.14,6.5L16,6.27Z"/><polygon class="cls-1" points="42.32 4.87 41.47 4.31 35.94 12.58 30.63 4.32 29.78 4.86 35.43 13.65 35.43 21 36.44 21 36.44 13.65 42.32 4.87 42.32 4.87"/><path class="cls-1" d="M52.17,21.5H44.72V4.09h7.5a10.93,10.93,0,0,1,3.63,1.65,8.28,8.28,0,0,1,3.66,7,8.28,8.28,0,0,1-3.66,7,10.84,10.84,0,0,1-3.63,1.66Zm-6.44-1h6.33A10.42,10.42,0,0,0,55.3,19a7.23,7.23,0,0,0,3.2-6.21,7.23,7.23,0,0,0-3.2-6.2,10.42,10.42,0,0,0-3.24-1.5H45.73V20.5Z"/><path class="cls-1" d="M73.72,21.19l.93-.39L67.13,3.3,59.78,20.8l.93.39,1-2.33h11l1,2.33ZM62.11,17.86l5-12,5.14,12Z"/><polygon class="cls-1" points="95.94 4.39 95.01 4.02 88.5 20.21 84.49 10.71 86.96 4.39 86.02 4.03 79.9 19.65 73.52 4.4 72.58 4.78 79.93 22.34 83.96 12.05 88.52 22.86 95.94 4.39 95.94 4.39"/><polygon class="cls-1" points="99 21 97.99 21 97.99 4.59 99 4.59 99 21 99 21"/></g></g></svg>